<svg xmlns="http://www.w3.org/2000/svg" viewBox="0 0 10 15.84"><defs><style>.cls-1{fill:#050606;}</style></defs><g id="Layer_2" data-name="Layer 2"><g id="Layer_1-2" data-name="Layer 1"><path class="cls-1" d="M5,0c.58,2.35,2,4.24,3.27,6.21A10.77,10.77,0,0,1,9.88,9.7a5.05,5.05,0,0,1-3.75,6,5,5,0,0,1-6-3.86A6.24,6.24,0,0,1,.9,7.6c.56-1.06,1.25-2,1.91-3A15.55,15.55,0,0,0,5,0ZM2.71,6.87a4.35,4.35,0,0,0-.82,1.36,5.1,5.1,0,0,0-.56,3.4A3.85,3.85,0,0,0,3.1,14.08.6.6,0,0,0,4,14a.7.7,0,0,0-.19-.94l-.31-.2a3.34,3.34,0,0,1-1.39-1.94A6.46,6.46,0,0,1,2.71,6.87Z"/></g></g></svg>